<svg xmlns="http://www.w3.org/2000/svg" width="16" height="14.398" viewBox="0 0 16 14.398">
  <path id="Calendario" d="M6.8-13.6h-2V-14a.384.384,0,0,0-.117-.281A.384.384,0,0,0,4.4-14.4a.384.384,0,0,0-.281.117A.384.384,0,0,0,4-14v.4H-4V-14a.384.384,0,0,0-.117-.281A.384.384,0,0,0-4.4-14.4a.384.384,0,0,0-.281.117A.384.384,0,0,0-4.8-14v.4h-2a1.16,1.16,0,0,0-.852.352A1.16,1.16,0,0,0-8-12.4V-1.2a1.16,1.16,0,0,0,.352.852A1.16,1.16,0,0,0-6.8,0H6.8a1.16,1.16,0,0,0,.852-.352A1.16,1.16,0,0,0,8-1.2V-12.4a1.16,1.16,0,0,0-.352-.852A1.16,1.16,0,0,0,6.8-13.6ZM-6.8-12.8h2v1.2a.384.384,0,0,0,.117.281A.384.384,0,0,0-4.4-11.2a.384.384,0,0,0,.281-.117A.384.384,0,0,0-4-11.6v-1.2H4v1.2a.384.384,0,0,0,.117.281A.384.384,0,0,0,4.4-11.2a.384.384,0,0,0,.281-.117A.384.384,0,0,0,4.8-11.6v-1.2h2a.393.393,0,0,1,.289.117A.384.384,0,0,1,7.2-12.4v2H-7.2v-2a.384.384,0,0,1,.117-.281A.393.393,0,0,1-6.8-12.8ZM6.8-.8H-6.8a.393.393,0,0,1-.289-.117A.393.393,0,0,1-7.2-1.2V-9.6H7.2v8.4a.393.393,0,0,1-.117.289A.393.393,0,0,1,6.8-.8Z" transform="translate(8 14.398)" fill="#315ca7"/>
</svg>
