<svg xmlns="http://www.w3.org/2000/svg" width="6" height="22.805" viewBox="0 0 6 22.805">
  <path id="acoes" d="M-21-7.2a2.858,2.858,0,0,1-1.166-.24,3.166,3.166,0,0,1-.955-.645,2.961,2.961,0,0,1-.645-.949A2.919,2.919,0,0,1-24-10.2a2.962,2.962,0,0,1,.234-1.172,2.944,2.944,0,0,1,.645-.955,3.08,3.08,0,0,1,.955-.639A2.919,2.919,0,0,1-21-13.2a2.919,2.919,0,0,1,1.166.234,3.08,3.08,0,0,1,.955.639,2.944,2.944,0,0,1,.645.955A2.962,2.962,0,0,1-18-10.2a2.919,2.919,0,0,1-.234,1.166,2.961,2.961,0,0,1-.645.949,3.167,3.167,0,0,1-.955.645A2.858,2.858,0,0,1-21-7.2Zm0-4.8a1.74,1.74,0,0,0-1.277.527A1.74,1.74,0,0,0-22.8-10.2a1.726,1.726,0,0,0,.527,1.266A1.74,1.74,0,0,0-21-8.4a1.74,1.74,0,0,0,1.277-.527A1.726,1.726,0,0,0-19.2-10.2a1.74,1.74,0,0,0-.527-1.277A1.74,1.74,0,0,0-21-12Zm8.4,4.8a2.858,2.858,0,0,1-1.166-.24,3.166,3.166,0,0,1-.955-.645,2.961,2.961,0,0,1-.645-.949A2.919,2.919,0,0,1-15.6-10.2a2.962,2.962,0,0,1,.234-1.172,2.944,2.944,0,0,1,.645-.955,3.08,3.08,0,0,1,.955-.639A2.919,2.919,0,0,1-12.6-13.2a2.919,2.919,0,0,1,1.166.234,3.08,3.08,0,0,1,.955.639,2.944,2.944,0,0,1,.645.955A2.962,2.962,0,0,1-9.6-10.2a2.919,2.919,0,0,1-.234,1.166,2.961,2.961,0,0,1-.645.949,3.167,3.167,0,0,1-.955.645A2.858,2.858,0,0,1-12.6-7.2Zm0-4.8a1.74,1.74,0,0,0-1.277.527A1.74,1.74,0,0,0-14.4-10.2a1.726,1.726,0,0,0,.527,1.266A1.74,1.74,0,0,0-12.6-8.4a1.726,1.726,0,0,0,1.266-.527A1.726,1.726,0,0,0-10.8-10.2a1.74,1.74,0,0,0-.527-1.277A1.726,1.726,0,0,0-12.6-12Zm8.4,4.8a2.9,2.9,0,0,1-1.172-.24,3.073,3.073,0,0,1-.955-.645,3.009,3.009,0,0,1-.639-.949A2.919,2.919,0,0,1-7.2-10.2a2.962,2.962,0,0,1,.234-1.172,2.991,2.991,0,0,1,.639-.955,2.992,2.992,0,0,1,.955-.639A2.962,2.962,0,0,1-4.2-13.2a2.919,2.919,0,0,1,1.166.234,3.009,3.009,0,0,1,.949.639,3.073,3.073,0,0,1,.645.955A2.9,2.9,0,0,1-1.2-10.2a2.858,2.858,0,0,1-.24,1.166,3.092,3.092,0,0,1-.645.949,3.092,3.092,0,0,1-.949.645A2.858,2.858,0,0,1-4.2-7.2Zm0-4.8a1.74,1.74,0,0,0-1.277.527A1.74,1.74,0,0,0-6-10.2,1.726,1.726,0,0,0-5.473-8.93,1.74,1.74,0,0,0-4.2-8.4,1.726,1.726,0,0,0-2.93-8.93,1.726,1.726,0,0,0-2.4-10.2a1.74,1.74,0,0,0-.527-1.277A1.726,1.726,0,0,0-4.2-12Z" transform="translate(-7.195 24) rotate(90)" fill="#315ca7"/>
</svg>
