<svg xmlns="http://www.w3.org/2000/svg" width="9.502" height="9.497" viewBox="0 0 9.502 9.497">
  <path id="Caminho_1096" data-name="Caminho 1096" d="M8.11-7.607a4.751,4.751,0,0,0-.725-.6A4.8,4.8,0,0,0,6.57-8.64a4.606,4.606,0,0,0-.886-.269A4.818,4.818,0,0,0,4.751-9a4.806,4.806,0,0,0-.935.09,4.618,4.618,0,0,0-.884.269,4.8,4.8,0,0,0-.815.437,4.751,4.751,0,0,0-.725.6,4.751,4.751,0,0,0-.6.725,4.8,4.8,0,0,0-.437.815,4.618,4.618,0,0,0-.269.884A4.806,4.806,0,0,0,0-4.248a4.818,4.818,0,0,0,.09.933,4.548,4.548,0,0,0,.269.884A4.921,4.921,0,0,0,.8-1.616a4.508,4.508,0,0,0,.6.723,4.865,4.865,0,0,0,.725.6,4.576,4.576,0,0,0,.815.437,4.73,4.73,0,0,0,.884.266A4.806,4.806,0,0,0,4.751.5a4.818,4.818,0,0,0,.933-.09A4.718,4.718,0,0,0,6.57.142,4.576,4.576,0,0,0,7.385-.3a4.865,4.865,0,0,0,.725-.6,4.508,4.508,0,0,0,.6-.723,4.79,4.79,0,0,0,.435-.815,4.785,4.785,0,0,0,.269-.884A4.7,4.7,0,0,0,9.5-4.248a4.684,4.684,0,0,0-.093-.935,4.862,4.862,0,0,0-.269-.884,4.671,4.671,0,0,0-.435-.815A4.751,4.751,0,0,0,8.11-7.607ZM4.751,0A4.121,4.121,0,0,1,3.1-.334a4.332,4.332,0,0,1-1.353-.911A4.282,4.282,0,0,1,.833-2.6,4.121,4.121,0,0,1,.5-4.248,4.121,4.121,0,0,1,.833-5.9a4.312,4.312,0,0,1,.913-1.353A4.312,4.312,0,0,1,3.1-8.167,4.121,4.121,0,0,1,4.751-8.5,4.121,4.121,0,0,1,6.4-8.167a4.282,4.282,0,0,1,1.35.913A4.332,4.332,0,0,1,8.665-5.9,4.121,4.121,0,0,1,9-4.248,4.121,4.121,0,0,1,8.665-2.6a4.3,4.3,0,0,1-.911,1.35A4.3,4.3,0,0,1,6.4-.334,4.121,4.121,0,0,1,4.751,0Zm0-.5h0a.24.24,0,0,1-.176-.073A.245.245,0,0,1,4.5-.752v-.5a.24.24,0,0,1,.073-.176A.24.24,0,0,1,4.751-1.5a.24.24,0,0,1,.176.073A.24.24,0,0,1,5-1.25v.5a.245.245,0,0,1-.073.181A.24.24,0,0,1,4.751-.5Zm0-1.5a.24.24,0,0,1-.176-.073A.24.24,0,0,1,4.5-2.251v-5a.24.24,0,0,1,.073-.176A.24.24,0,0,1,4.751-7.5a.24.24,0,0,1,.176.073A.24.24,0,0,1,5-7.251v5a.24.24,0,0,1-.073.176A.24.24,0,0,1,4.751-2Z" transform="translate(0 8.999)" fill="#de4f4f"/>
</svg>
