<svg xmlns="http://www.w3.org/2000/svg" width="10.406" height="10.398" viewBox="0 0 10.406 10.398">
  <path id="cancel" d="M8.563-6.8l4.523-4.523A.384.384,0,0,0,13.2-11.6a.384.384,0,0,0-.117-.281A.388.388,0,0,0,12.8-12a.388.388,0,0,0-.285.117L8-7.367,3.484-11.883A.388.388,0,0,0,3.2-12a.388.388,0,0,0-.285.117A.384.384,0,0,0,2.8-11.6a.384.384,0,0,0,.117.281L7.438-6.8,2.914-2.281A.384.384,0,0,0,2.8-2a.384.384,0,0,0,.117.281.378.378,0,0,0,.137.09A.437.437,0,0,0,3.2-1.6a.417.417,0,0,0,.145-.027.378.378,0,0,0,.137-.09L8-6.234l4.516,4.516a.378.378,0,0,0,.137.09A.417.417,0,0,0,12.8-1.6a.437.437,0,0,0,.152-.027.378.378,0,0,0,.137-.09A.384.384,0,0,0,13.2-2a.384.384,0,0,0-.117-.281Z" transform="translate(-2.797 12)" fill="#464a53"/>
</svg>
